<svg width="139" height="36" viewBox="0 0 139 36" fill="none" xmlns="http://www.w3.org/2000/svg">
<defs>
<linearGradient id="zuvia-grad" x1="2.08687" y1="25.3433" x2="32.7954" y2="9.98779" gradientUnits="userSpaceOnUse">
<stop stop-color="#FC2567"/>
<stop offset="0.490196" stop-color="#FA2697"/>
<stop offset="1" stop-color="#BA08B5"/>
</linearGradient>
</defs>
<path fill-rule="evenodd" clip-rule="evenodd" d="M22.8648 29.7461L18.0192 34.5917C17.7025 34.9109 17.1824 34.9109 16.8631 34.5917L12.0175 29.7461C11.7781 29.5066 11.7111 29.1668 11.8399 28.8552C11.9712 28.5437 12.2595 28.3506 12.5968 28.3506H22.2854C22.6253 28.3506 22.9137 28.5437 23.0424 28.8552C23.1711 29.1668 23.1042 29.5066 22.8648 29.7461ZM18.0192 0.739448L22.9394 5.65971C23.1789 5.89658 23.2458 6.23902 23.1171 6.55056C22.9883 6.8621 22.6974 7.0552 22.3601 7.0552H12.5222C12.1849 7.0552 11.8965 6.8621 11.7678 6.55056C11.6365 6.23902 11.706 5.89658 11.9429 5.65971L16.8631 0.739448C17.1824 0.420184 17.7025 0.420184 18.0192 0.739448ZM18.4079 13.8112L7.10755 23.7522C6.78314 24.038 6.29394 24.0225 5.99013 23.7161L0.516303 18.2449C0.19704 17.9256 0.19704 17.4055 0.516303 17.0863L4.98342 12.6191C5.14305 12.4595 5.33615 12.3797 5.56273 12.3797H17.8673C18.2148 12.3797 18.5109 12.5831 18.6319 12.9075C18.7555 13.2319 18.668 13.5821 18.4079 13.8112ZM30.3546 13.0749L34.3685 17.0863C34.6878 17.4055 34.6878 17.9256 34.3685 18.2449L29.8242 22.7867C29.6671 22.9463 29.4715 23.0261 29.2475 23.0261H20.0506C19.7056 23.0261 19.4095 22.8227 19.2859 22.4983C19.1623 22.1713 19.2499 21.8237 19.5125 21.5946L29.1882 13.08L29.2346 13.0388C29.5616 12.753 30.0482 12.7685 30.3546 13.0749Z" fill="url(#zuvia-grad)"/>
<path d="M46.6294 27.1587V24.5222L59.1439 11.5329H46.6294V8.23572H64.5705V10.8381L52.0561 23.8616H65.2129V27.1587H46.6294ZM99.9713 27.1587H97.2192L87.4124 8.23572H91.5599L98.5371 22.0792L105.021 8.23572H108.981L99.9713 27.1587ZM111.312 27.1587V8.23572H114.933V27.1587H111.312ZM129.824 8.23572H127.071L117.27 27.1587H121.418L128.389 13.3153L134.874 27.1587H138.833L129.824 8.23572ZM75.0141 27.5744C72.6939 27.5004 70.8223 26.9082 69.3936 25.8034C67.7379 24.5108 66.9073 22.6715 66.9073 20.2968V8.23572H70.5288V20.257C70.5288 22.7398 71.9575 24.078 74.8148 24.266C75.435 24.3058 76.3929 24.3058 77.0187 24.2773C79.9812 24.1236 81.4597 22.7854 81.4597 20.257V8.23572H85.0811V20.2968C85.0811 22.6715 84.2505 24.5108 82.5893 25.8034C81.133 26.931 79.2115 27.5233 76.8193 27.5802C76.2434 27.5916 75.59 27.5973 75.0141 27.5744Z" fill="currentColor"/>
</svg>
